# Blender v2.69 (sub 2) OBJ File: 'warehouse001.blend'
# www.blender.org
mtllib warehouse1.mtl
o room_Cube
v 50.000000 -2.000000 -100.000000
v 50.000000 -2.000000 100.000000
v -50.000008 -2.000000 99.999977
v -49.999981 -2.000000 -100.000038
v 50.000023 0.000000 -99.999954
v 49.999969 0.000000 100.000061
v -50.000019 0.000000 99.999962
v -49.999992 0.000000 -100.000000
v -49.743877 0.027256 99.823418
v -49.743877 20.027256 99.823418
v -49.743877 0.027256 -99.873924
v -49.743877 20.027256 -99.873924
v -49.743877 20.027256 -95.958290
v -48.855705 20.027256 -92.042656
v -49.743877 20.027256 -88.127022
v -48.855705 20.027256 -84.211388
v -49.743877 20.027256 -80.295753
v -48.855705 20.027256 -76.380119
v -49.743877 20.027256 -72.464485
v -48.855705 20.027256 -68.548851
v -49.743877 20.027256 -64.633217
v -48.855705 20.027256 -60.717583
v -49.743877 20.027256 -56.801949
v -48.855705 20.027256 -52.886314
v -49.743877 20.027256 -48.970680
v -48.855705 20.027256 -45.055046
v -49.743877 20.027256 -41.139412
v -48.855705 20.027256 -37.223778
v -49.743877 20.027256 -33.308144
v -48.855705 20.027256 -29.392509
v -49.743877 20.027256 -25.476875
v -48.855705 20.027256 -21.561241
v -49.743877 20.027256 -17.645607
v -48.855705 20.027256 -13.729973
v -49.743877 20.027256 -9.814339
v -48.855705 20.027256 -5.898705
v -49.743877 20.027256 -1.983070
v -48.855705 20.027256 1.932564
v -49.743877 20.027256 5.848198
v -48.855705 20.027256 9.763832
v -49.743877 20.027256 13.679466
v -48.855705 20.027256 17.595100
v -49.743877 20.027256 21.510735
v -48.855705 20.027256 25.426369
v -49.743877 20.027256 29.342003
v -48.855705 20.027256 33.257637
v -49.743877 20.027256 37.173271
v -48.855705 20.027256 41.088905
v -49.743877 20.027256 45.004539
v -48.855705 20.027256 48.920174
v -49.743877 20.027256 52.835808
v -48.855705 20.027256 56.751442
v -49.743877 20.027256 60.667076
v -48.855705 20.027256 64.582710
v -49.743877 20.027256 68.498344
v -48.855705 20.027256 72.413979
v -49.743877 20.027256 76.329613
v -48.855705 20.027256 80.245247
v -49.743877 20.027256 84.160881
v -48.855705 20.027256 88.076515
v -49.743877 20.027256 91.992149
v -48.855705 20.027256 95.907784
v -48.855705 0.027256 95.907784
v -49.743877 0.027256 91.992149
v -48.855705 0.027256 88.076515
v -49.743877 0.027256 84.160881
v -48.855705 0.027256 80.245247
v -49.743877 0.027256 76.329613
v -48.855705 0.027256 72.413979
v -49.743877 0.027256 68.498344
v -48.855705 0.027256 64.582710
v -49.743877 0.027256 60.667076
v -48.855705 0.027256 56.751442
v -49.743877 0.027256 52.835808
v -48.855705 0.027256 48.920174
v -49.743877 0.027256 45.004539
v -48.855705 0.027256 41.088905
v -49.743877 0.027256 37.173271
v -48.855705 0.027256 33.257637
v -49.743877 0.027256 29.342003
v -48.855705 0.027256 25.426369
v -49.743877 0.027256 21.510735
v -48.855705 0.027256 17.595100
v -49.743877 0.027256 13.679466
v -48.855705 0.027256 9.763832
v -49.743877 0.027256 5.848198
v -48.855705 0.027256 1.932564
v -49.743877 0.027256 -1.983070
v -48.855705 0.027256 -5.898705
v -49.743877 0.027256 -9.814339
v -48.855705 0.027256 -13.729973
v -49.743877 0.027256 -17.645607
v -48.855705 0.027256 -21.561241
v -49.743877 0.027256 -25.476875
v -48.855705 0.027256 -29.392509
v -49.743877 0.027256 -33.308144
v -48.855705 0.027256 -37.223778
v -49.743877 0.027256 -41.139412
v -48.855705 0.027256 -45.055046
v -49.743877 0.027256 -48.970680
v -48.855705 0.027256 -52.886314
v -49.743877 0.027256 -56.801949
v -48.855705 0.027256 -60.717583
v -49.743877 0.027256 -64.633217
v -48.855705 0.027256 -68.548851
v -49.743877 0.027256 -72.464485
v -48.855705 0.027256 -76.380119
v -49.743877 0.027256 -80.295753
v -48.855705 0.027256 -84.211388
v -49.743877 0.027256 -88.127022
v -48.855705 0.027256 -92.042656
v -49.743877 0.027256 -95.958290
v 48.545322 0.027256 99.823418
v 48.545322 20.027256 99.823418
v 48.545322 0.027256 -99.873924
v 48.545322 20.027256 -99.873924
v 48.545322 20.027256 -95.958290
v 49.433495 20.027256 -92.042656
v 48.545322 20.027256 -88.127022
v 49.433495 20.027256 -84.211388
v 48.545322 20.027256 -80.295753
v 49.433495 20.027256 -76.380119
v 48.545322 20.027256 -72.464485
v 49.433495 20.027256 -68.548851
v 48.545322 20.027256 -64.633217
v 49.433495 20.027256 -60.717583
v 48.545322 20.027256 -56.801949
v 49.433495 20.027256 -52.886314
v 48.545322 20.027256 -48.970680
v 49.433495 20.027256 -45.055046
v 48.545322 20.027256 -41.139412
v 49.433495 20.027256 -37.223778
v 48.545322 20.027256 -33.308144
v 49.433495 20.027256 -29.392509
v 48.545322 20.027256 -25.476875
v 49.433495 20.027256 -21.561241
v 48.545322 20.027256 -17.645607
v 49.433495 20.027256 -13.729973
v 48.545322 20.027256 -9.814339
v 49.433495 20.027256 -5.898705
v 48.545322 20.027256 -1.983070
v 49.433495 20.027256 1.932564
v 48.545322 20.027256 5.848198
v 49.433495 20.027256 9.763832
v 48.545322 20.027256 13.679466
v 49.433495 20.027256 17.595100
v 48.545322 20.027256 21.510735
v 49.433495 20.027256 25.426369
v 48.545322 20.027256 29.342003
v 49.433495 20.027256 33.257637
v 48.545322 20.027256 37.173271
v 49.433495 20.027256 41.088905
v 48.545322 20.027256 45.004539
v 49.433495 20.027256 48.920174
v 48.545322 20.027256 52.835808
v 49.433495 20.027256 56.751442
v 48.545322 20.027256 60.667076
v 49.433495 20.027256 64.582710
v 48.545322 20.027256 68.498344
v 49.433495 20.027256 72.413979
v 48.545322 20.027256 76.329613
v 49.433495 20.027256 80.245247
v 48.545322 20.027256 84.160881
v 49.433495 20.027256 88.076515
v 48.545322 20.027256 91.992149
v 49.433495 20.027256 95.907784
v 49.433495 0.027256 95.907784
v 48.545322 0.027256 91.992149
v 49.433495 0.027256 88.076515
v 48.545322 0.027256 84.160881
v 49.433495 0.027256 80.245247
v 48.545322 0.027256 76.329613
v 49.433495 0.027256 72.413979
v 48.545322 0.027256 68.498344
v 49.433495 0.027256 64.582710
v 48.545322 0.027256 60.667076
v 49.433495 0.027256 56.751442
v 48.545322 0.027256 52.835808
v 49.433495 0.027256 48.920174
v 48.545322 0.027256 45.004539
v 49.433495 0.027256 41.088905
v 48.545322 0.027256 37.173271
v 49.433495 0.027256 33.257637
v 48.545322 0.027256 29.342003
v 49.433495 0.027256 25.426369
v 48.545322 0.027256 21.510735
v 49.433495 0.027256 17.595100
v 48.545322 0.027256 13.679466
v 49.433495 0.027256 9.763832
v 48.545322 0.027256 5.848198
v 49.433495 0.027256 1.932564
v 48.545322 0.027256 -1.983070
v 49.433495 0.027256 -5.898705
v 48.545322 0.027256 -9.814339
v 49.433495 0.027256 -13.729973
v 48.545322 0.027256 -17.645607
v 49.433495 0.027256 -21.561241
v 48.545322 0.027256 -25.476875
v 49.433495 0.027256 -29.392509
v 48.545322 0.027256 -33.308144
v 49.433495 0.027256 -37.223778
v 48.545322 0.027256 -41.139412
v 49.433495 0.027256 -45.055046
v 48.545322 0.027256 -48.970680
v 49.433495 0.027256 -52.886314
v 48.545322 0.027256 -56.801949
v 49.433495 0.027256 -60.717583
v 48.545322 0.027256 -64.633217
v 49.433495 0.027256 -68.548851
v 48.545322 0.027256 -72.464485
v 49.433495 0.027256 -76.380119
v 48.545322 0.027256 -80.295753
v 49.433495 0.027256 -84.211388
v 48.545322 0.027256 -88.127022
v 49.433495 0.027256 -92.042656
v 48.545322 0.027256 -95.958290
vt 0.813821 0.000813
vt 0.813821 0.407317
vt 0.000813 0.407317
vt 0.000813 0.000813
vt 0.981301 0.000813
vt 0.989431 0.000813
vt 0.989431 0.813821
vt 0.981301 0.813821
vt 0.008943 0.815447
vt 0.000813 0.815447
vt 0.000813 0.408943
vt 0.008943 0.408943
vt 0.991057 0.000813
vt 0.999187 0.000813
vt 0.999187 0.813821
vt 0.991057 0.813821
vt 0.018699 0.815447
vt 0.010569 0.815447
vt 0.010569 0.408943
vt 0.018699 0.408943
vt 0.896748 0.016730
vt 0.815447 0.016730
vt 0.815447 0.000813
vt 0.896748 0.000813
vt 0.896748 0.812591
vt 0.815447 0.812591
vt 0.815447 0.796673
vt 0.896748 0.796673
vt 0.815447 0.780756
vt 0.896748 0.780756
vt 0.815447 0.764839
vt 0.896748 0.764839
vt 0.815447 0.748922
vt 0.896748 0.748922
vt 0.815447 0.733005
vt 0.896748 0.733005
vt 0.815447 0.717087
vt 0.896748 0.717087
vt 0.815447 0.701170
vt 0.896748 0.701170
vt 0.815447 0.685253
vt 0.896748 0.685253
vt 0.815447 0.669336
vt 0.896748 0.669336
vt 0.815447 0.653419
vt 0.896748 0.653419
vt 0.815447 0.637501
vt 0.896748 0.637501
vt 0.815447 0.621584
vt 0.896748 0.621584
vt 0.815447 0.605667
vt 0.896748 0.605667
vt 0.815447 0.589750
vt 0.896748 0.589750
vt 0.815447 0.573832
vt 0.896748 0.573833
vt 0.815447 0.557915
vt 0.896748 0.557915
vt 0.815447 0.541998
vt 0.896748 0.541998
vt 0.815447 0.526081
vt 0.896748 0.526081
vt 0.815447 0.510164
vt 0.896748 0.510164
vt 0.815447 0.494246
vt 0.896748 0.494246
vt 0.815447 0.478329
vt 0.896748 0.478329
vt 0.815447 0.462412
vt 0.896748 0.462412
vt 0.815447 0.446495
vt 0.896748 0.446495
vt 0.815447 0.430578
vt 0.896748 0.430578
vt 0.815447 0.414660
vt 0.896748 0.414660
vt 0.815447 0.398743
vt 0.896748 0.398743
vt 0.815447 0.382826
vt 0.896748 0.382826
vt 0.815447 0.366909
vt 0.896748 0.366909
vt 0.815447 0.350992
vt 0.896748 0.350992
vt 0.815447 0.335074
vt 0.896748 0.335074
vt 0.815447 0.319157
vt 0.896748 0.319157
vt 0.815447 0.303240
vt 0.896748 0.303240
vt 0.815447 0.287323
vt 0.896748 0.287323
vt 0.815447 0.271406
vt 0.896748 0.271406
vt 0.815447 0.255488
vt 0.896748 0.255488
vt 0.815447 0.239571
vt 0.896748 0.239571
vt 0.815447 0.223654
vt 0.896748 0.223654
vt 0.815447 0.207737
vt 0.896748 0.207737
vt 0.815447 0.191819
vt 0.896748 0.191819
vt 0.815447 0.175902
vt 0.896748 0.175902
vt 0.815447 0.159985
vt 0.896748 0.159985
vt 0.815447 0.144068
vt 0.896748 0.144068
vt 0.815447 0.128151
vt 0.896748 0.128151
vt 0.815447 0.112234
vt 0.896748 0.112234
vt 0.815447 0.096316
vt 0.896748 0.096316
vt 0.815447 0.080399
vt 0.896748 0.080399
vt 0.815447 0.064482
vt 0.896748 0.064482
vt 0.815447 0.048565
vt 0.896748 0.048565
vt 0.815447 0.032647
vt 0.896748 0.032647
vt 0.979675 0.796673
vt 0.979675 0.812591
vt 0.898374 0.812591
vt 0.898374 0.796673
vt 0.979675 0.000813
vt 0.979675 0.016730
vt 0.898374 0.016730
vt 0.898374 0.000813
vt 0.979675 0.032647
vt 0.898374 0.032647
vt 0.979675 0.048565
vt 0.898374 0.048565
vt 0.979675 0.064482
vt 0.898374 0.064482
vt 0.979675 0.080399
vt 0.898374 0.080399
vt 0.979675 0.096316
vt 0.898374 0.096316
vt 0.979675 0.112233
vt 0.898374 0.112233
vt 0.979675 0.128151
vt 0.898374 0.128151
vt 0.979675 0.144068
vt 0.898374 0.144068
vt 0.979675 0.159985
vt 0.898374 0.159985
vt 0.979675 0.175902
vt 0.898374 0.175902
vt 0.979675 0.191820
vt 0.898374 0.191820
vt 0.979675 0.207737
vt 0.898374 0.207737
vt 0.979675 0.223654
vt 0.898374 0.223654
vt 0.979675 0.239571
vt 0.898374 0.239571
vt 0.979675 0.255488
vt 0.898374 0.255488
vt 0.979675 0.271406
vt 0.898374 0.271406
vt 0.979675 0.287323
vt 0.898374 0.287323
vt 0.979675 0.303240
vt 0.898374 0.303240
vt 0.979675 0.319157
vt 0.898374 0.319157
vt 0.979675 0.335074
vt 0.898374 0.335074
vt 0.979675 0.350992
vt 0.898374 0.350992
vt 0.979675 0.366909
vt 0.898374 0.366909
vt 0.979675 0.382826
vt 0.898374 0.382826
vt 0.979675 0.398743
vt 0.898374 0.398743
vt 0.979675 0.414660
vt 0.898374 0.414660
vt 0.979675 0.430578
vt 0.898374 0.430578
vt 0.979675 0.446495
vt 0.898374 0.446495
vt 0.979675 0.462412
vt 0.898374 0.462412
vt 0.979675 0.478329
vt 0.898374 0.478329
vt 0.979675 0.494247
vt 0.898374 0.494246
vt 0.979675 0.510164
vt 0.898374 0.510164
vt 0.979675 0.526081
vt 0.898374 0.526081
vt 0.979675 0.541998
vt 0.898374 0.541998
vt 0.979675 0.557915
vt 0.898374 0.557915
vt 0.979675 0.573833
vt 0.898374 0.573833
vt 0.979675 0.589750
vt 0.898374 0.589750
vt 0.979675 0.605667
vt 0.898374 0.605667
vt 0.979675 0.621584
vt 0.898374 0.621584
vt 0.979675 0.637501
vt 0.898374 0.637501
vt 0.979675 0.653419
vt 0.898374 0.653419
vt 0.979675 0.669336
vt 0.898374 0.669336
vt 0.979675 0.685253
vt 0.898374 0.685253
vt 0.979675 0.701170
vt 0.898374 0.701170
vt 0.979675 0.717087
vt 0.898374 0.717087
vt 0.979675 0.733005
vt 0.898374 0.733005
vt 0.979675 0.748922
vt 0.898374 0.748922
vt 0.979675 0.764839
vt 0.898374 0.764839
vt 0.979675 0.780756
vt 0.898374 0.780756
vn 0.000000 1.000000 0.000000
vn 1.000000 0.000003 0.000000
vn -0.000001 -0.000011 1.000000
vn -1.000000 -0.000005 -0.000000
vn 0.000000 0.000021 -1.000000
vn 1.000000 -0.000000 0.000000
vn 0.975227 0.000000 0.221208
vn 0.975227 0.000000 -0.221208
vn -1.000000 0.000000 0.000000
vn -0.975227 -0.000000 -0.221208
vn -0.975227 -0.000000 0.221208
usemtl Material
s off
f 5/1/1 8/2/1 7/3/1 6/4/1
f 1/5/2 5/6/2 6/7/2 2/8/2
f 2/9/3 6/10/3 7/11/3 3/12/3
f 3/13/4 7/14/4 8/15/4 4/16/4
f 5/17/5 1/18/5 4/19/5 8/20/5
f 13/21/6 112/22/6 11/23/6 12/24/6
f 10/25/7 9/26/7 63/27/7 62/28/7
f 62/28/8 63/27/8 64/29/8 61/30/8
f 61/30/7 64/29/7 65/31/7 60/32/7
f 60/32/8 65/31/8 66/33/8 59/34/8
f 59/34/7 66/33/7 67/35/7 58/36/7
f 58/36/8 67/35/8 68/37/8 57/38/8
f 57/38/7 68/37/7 69/39/7 56/40/7
f 56/40/8 69/39/8 70/41/8 55/42/8
f 55/42/7 70/41/7 71/43/7 54/44/7
f 54/44/8 71/43/8 72/45/8 53/46/8
f 53/46/7 72/45/7 73/47/7 52/48/7
f 52/48/8 73/47/8 74/49/8 51/50/8
f 51/50/7 74/49/7 75/51/7 50/52/7
f 50/52/8 75/51/8 76/53/8 49/54/8
f 49/54/7 76/53/7 77/55/7 48/56/7
f 48/56/8 77/55/8 78/57/8 47/58/8
f 47/58/7 78/57/7 79/59/7 46/60/7
f 46/60/8 79/59/8 80/61/8 45/62/8
f 45/62/7 80/61/7 81/63/7 44/64/7
f 44/64/8 81/63/8 82/65/8 43/66/8
f 43/66/7 82/65/7 83/67/7 42/68/7
f 42/68/8 83/67/8 84/69/8 41/70/8
f 41/70/7 84/69/7 85/71/7 40/72/7
f 40/72/8 85/71/8 86/73/8 39/74/8
f 39/74/7 86/73/7 87/75/7 38/76/7
f 38/76/8 87/75/8 88/77/8 37/78/8
f 37/78/7 88/77/7 89/79/7 36/80/7
f 36/80/8 89/79/8 90/81/8 35/82/8
f 35/82/7 90/81/7 91/83/7 34/84/7
f 34/84/8 91/83/8 92/85/8 33/86/8
f 33/86/7 92/85/7 93/87/7 32/88/7
f 32/88/8 93/87/8 94/89/8 31/90/8
f 31/90/7 94/89/7 95/91/7 30/92/7
f 30/92/8 95/91/8 96/93/8 29/94/8
f 29/94/7 96/93/7 97/95/7 28/96/7
f 28/96/8 97/95/8 98/97/8 27/98/8
f 27/98/7 98/97/7 99/99/7 26/100/7
f 26/100/8 99/99/8 100/101/8 25/102/8
f 25/102/7 100/101/7 101/103/7 24/104/7
f 24/104/8 101/103/8 102/105/8 23/106/8
f 23/106/7 102/105/7 103/107/7 22/108/7
f 22/108/8 103/107/8 104/109/8 21/110/8
f 21/110/7 104/109/7 105/111/7 20/112/7
f 20/112/8 105/111/8 106/113/8 19/114/8
f 19/114/7 106/113/7 107/115/7 18/116/7
f 18/116/8 107/115/8 108/117/8 17/118/8
f 17/118/7 108/117/7 109/119/7 16/120/7
f 16/120/8 109/119/8 110/121/8 15/122/8
f 15/122/7 110/121/7 111/123/7 14/124/7
f 14/124/8 111/123/8 112/22/8 13/21/8
f 117/125/9 116/126/9 115/127/9 216/128/9
f 114/129/10 166/130/10 167/131/10 113/132/10
f 166/130/11 165/133/11 168/134/11 167/131/11
f 165/133/10 164/135/10 169/136/10 168/134/10
f 164/135/11 163/137/11 170/138/11 169/136/11
f 163/137/10 162/139/10 171/140/10 170/138/10
f 162/139/11 161/141/11 172/142/11 171/140/11
f 161/141/10 160/143/10 173/144/10 172/142/10
f 160/143/11 159/145/11 174/146/11 173/144/11
f 159/145/10 158/147/10 175/148/10 174/146/10
f 158/147/11 157/149/11 176/150/11 175/148/11
f 157/149/10 156/151/10 177/152/10 176/150/10
f 156/151/11 155/153/11 178/154/11 177/152/11
f 155/153/10 154/155/10 179/156/10 178/154/10
f 154/155/11 153/157/11 180/158/11 179/156/11
f 153/157/10 152/159/10 181/160/10 180/158/10
f 152/159/11 151/161/11 182/162/11 181/160/11
f 151/161/10 150/163/10 183/164/10 182/162/10
f 150/163/11 149/165/11 184/166/11 183/164/11
f 149/165/10 148/167/10 185/168/10 184/166/10
f 148/167/11 147/169/11 186/170/11 185/168/11
f 147/169/10 146/171/10 187/172/10 186/170/10
f 146/171/11 145/173/11 188/174/11 187/172/11
f 145/173/10 144/175/10 189/176/10 188/174/10
f 144/175/11 143/177/11 190/178/11 189/176/11
f 143/177/10 142/179/10 191/180/10 190/178/10
f 142/179/11 141/181/11 192/182/11 191/180/11
f 141/181/10 140/183/10 193/184/10 192/182/10
f 140/183/11 139/185/11 194/186/11 193/184/11
f 139/185/10 138/187/10 195/188/10 194/186/10
f 138/187/11 137/189/11 196/190/11 195/188/11
f 137/189/10 136/191/10 197/192/10 196/190/10
f 136/191/11 135/193/11 198/194/11 197/192/11
f 135/193/10 134/195/10 199/196/10 198/194/10
f 134/195/11 133/197/11 200/198/11 199/196/11
f 133/197/10 132/199/10 201/200/10 200/198/10
f 132/199/11 131/201/11 202/202/11 201/200/11
f 131/201/10 130/203/10 203/204/10 202/202/10
f 130/203/11 129/205/11 204/206/11 203/204/11
f 129/205/10 128/207/10 205/208/10 204/206/10
f 128/207/11 127/209/11 206/210/11 205/208/11
f 127/209/10 126/211/10 207/212/10 206/210/10
f 126/211/11 125/213/11 208/214/11 207/212/11
f 125/213/10 124/215/10 209/216/10 208/214/10
f 124/215/11 123/217/11 210/218/11 209/216/11
f 123/217/10 122/219/10 211/220/10 210/218/10
f 122/219/11 121/221/11 212/222/11 211/220/11
f 121/221/10 120/223/10 213/224/10 212/222/10
f 120/223/11 119/225/11 214/226/11 213/224/11
f 119/225/10 118/227/10 215/228/10 214/226/10
f 118/227/11 117/125/11 216/128/11 215/228/11
